<?xml version="1.0" encoding="UTF-8" standalone="no"?>
<svg
   height="48"
   width="48"
   version="1.1"
   id="svg4"
   sodipodi:docname="password.svg"
   inkscape:version="1.1.2 (b8e25be833, 2022-02-05)"
   xmlns:inkscape="http://www.inkscape.org/namespaces/inkscape"
   xmlns:sodipodi="http://sodipodi.sourceforge.net/DTD/sodipodi-0.dtd"
   xmlns="http://www.w3.org/2000/svg"
   xmlns:svg="http://www.w3.org/2000/svg">
  <defs
     id="defs8" />
  <sodipodi:namedview
     id="namedview6"
     pagecolor="#505050"
     bordercolor="#eeeeee"
     borderopacity="1"
     inkscape:pageshadow="0"
     inkscape:pageopacity="0"
     inkscape:pagecheckerboard="0"
     showgrid="false"
     inkscape:zoom="4.328125"
     inkscape:cx="89.299639"
     inkscape:cy="-24.028881"
     inkscape:window-width="1920"
     inkscape:window-height="1017"
     inkscape:window-x="-8"
     inkscape:window-y="-8"
     inkscape:window-maximized="1"
     inkscape:current-layer="svg4" />
  <path
     d="m 12.17999,42.093863 q -1.136539,0 -1.932117,-0.795578 Q 9.452295,40.502708 9.452295,39.366168 V 19.635843 q 0,-1.136539 0.795578,-1.932117 0.795578,-0.795577 1.932117,-0.795577 h 3.18231 v -4.364312 q 0,-3.5914646 2.523118,-6.1145822 Q 20.408535,3.9061372 24,3.9061372 q 3.591465,0 6.114582,2.5231176 2.523118,2.5231176 2.523118,6.1145822 v 4.364312 h 3.18231 q 1.136539,0 1.932118,0.795577 0.795577,0.795578 0.795577,1.932117 v 19.730325 q 0,1.13654 -0.795577,1.932117 -0.795579,0.795578 -1.932118,0.795578 z M 24,33.001547 q 1.45477,0 2.477656,-1.000154 1.022885,-1.000155 1.022885,-2.409465 0,-1.363847 -1.022885,-2.477655 Q 25.45477,26.000464 24,26.000464 q -1.45477,0 -2.477656,1.113809 -1.022885,1.113808 -1.022885,2.477655 0,1.40931 1.022885,2.409465 Q 22.54523,33.001547 24,33.001547 Z M 18.089995,16.908149 h 11.82001 v -4.364312 q 0,-2.454925 -1.72754,-4.1824652 Q 26.454925,6.6338319 24,6.6338319 q -2.454925,0 -4.182465,1.7275399 -1.72754,1.7275402 -1.72754,4.1824652 z"
     id="path2"
     style="fill:#ffffff;stroke-width:0.909231" />
</svg>
